<?xml version="1.0" encoding="UTF-8" standalone="no"?>
<!-- Generator: Adobe Illustrator 23.0.6, SVG Export Plug-In . SVG Version: 6.00 Build 0)  -->

<svg
   version="1.1"
   id="Слой_1"
   x="0px"
   y="0px"
   viewBox="0 0 100 100"
   xml:space="preserve"
   width="100"
   height="100"
   xmlns="http://www.w3.org/2000/svg"
   xmlns:svg="http://www.w3.org/2000/svg"><defs
   id="defs2" />

<linearGradient
   id="SVGID_1_"
   gradientUnits="userSpaceOnUse"
   x1="17.8461"
   y1="-147.54089"
   x2="27.0776"
   y2="-163.1534"
   gradientTransform="matrix(1,0,0,-1,-1.4976335e-8,-132)">
	<stop
   offset="0"
   style="stop-color:#FFFFFF"
   id="stop1" />
	<stop
   offset="1"
   style="stop-color:#F1E5FC"
   id="stop2" />
</linearGradient>
<g
   id="g2"
   transform="matrix(2.1523566,0,0,2.1523566,-1.6576346,-1.5909115)"><path
     style="fill:#6c19ff"
     d="M 6.391,10.671 C 6.306,8.223 8.213,5.965 10.792,5.965 h 26.42 c 2.578,0 4.486,2.258 4.401,4.706 -0.082,2.352 0.024,5.398 0.791,7.882 0.769,2.492 2.066,4.067 4.19,4.269 v 2.295 c -2.124,0.202 -3.421,1.777 -4.19,4.269 -0.767,2.484 -0.873,5.53 -0.791,7.882 0.085,2.448 -1.822,4.706 -4.401,4.706 h -26.42 c -2.578,0 -4.486,-2.258 -4.4,-4.706 C 6.474,34.916 6.367,31.87 5.601,29.386 4.832,26.894 3.532,25.319 1.407,25.117 v -2.295 c 2.124,-0.202 3.425,-1.777 4.194,-4.269 0.766,-2.483 0.872,-5.53 0.79,-7.882 z"
     id="path1" /><path
     style="fill:url(#SVGID_1_)"
     d="m 25.042,34.016 c 4.366,0 6.997,-2.138 6.997,-5.664 0,-2.665 -1.877,-4.595 -4.665,-4.9 v -0.111 c 2.048,-0.333 3.655,-2.235 3.655,-4.359 0,-3.026 -2.389,-4.997 -6.03,-4.997 H 16.807 V 34.016 Z M 19.994,16.525 h 4.238 c 2.304,0 3.612,1.027 3.612,2.887 0,1.985 -1.522,3.096 -4.281,3.096 h -3.57 v -5.983 z m 0,14.95 v -6.594 h 4.21 c 3.015,0 4.579,1.11 4.579,3.276 0,2.165 -1.522,3.318 -4.394,3.318 z"
     id="path2" /></g>
</svg>
