<?xml version="1.0" encoding="UTF-8" standalone="no"?>
<!-- Generator: Adobe Illustrator 26.4.1, SVG Export Plug-In . SVG Version: 6.00 Build 0)  -->

<svg
   version="1.1"
   id="Layer_1"
   x="0px"
   y="0px"
   viewBox="0 0 100 100"
   xml:space="preserve"
   width="100"
   height="100"
   xmlns="http://www.w3.org/2000/svg"
   xmlns:svg="http://www.w3.org/2000/svg"><defs
   id="defs2" />

<g
   id="g2"
   transform="matrix(2.001441,0,0,2.001441,9.3800001e-7,-1.0379335)"
   style="stroke-width:0.49964"><path
     d="m 49.729,11 h -0.85 c -1.051,0 -2.041,0.49 -2.68,1.324 l -8.7,11.377 -8.7,-11.377 C 28.162,11.49 27.171,11 26.121,11 h -0.85 L 36.242,25.346 25.036,40 h 0.85 c 1.051,0 2.041,-0.49 2.679,-1.324 L 37.5,26.992 46.435,38.676 C 47.073,39.51 48.063,40 49.114,40 h 0.85 L 38.758,25.346 Z"
     id="path1"
     style="stroke-width:0.49964" /><path
     d="M 21.289,34.242 C 18.735,38.123 13.707,40.112 8.9,38.358 4.671,36.815 2,32.611 2,28.109 V 27 h 12 v 0 H 25 V 22.866 C 25,16.361 20.182,10.666 13.705,10.057 6.273,9.358 0,15.21 0,22.5 v 5.573 c 0,5.371 3.215,10.364 8.269,12.183 6.603,2.376 13.548,-1.17 15.896,-7.256 0,0 0,0 0,0 h -0.638 c -0.911,0 -1.738,0.481 -2.238,1.242 z M 2,22.5 C 2,16.71 6.71,12 12.5,12 18.29,12 23,16.71 23,22.5 V 25 H 2 Z"
     id="path2"
     style="stroke-width:0.49964" /></g>
</svg>
